<svg viewBox="0 0 512 512" xmlns="http://www.w3.org/2000/svg" width="512" height="512">
  <defs>
    <linearGradient id="bg" x1="0%" y1="0%" x2="100%" y2="100%">
      <stop offset="0%" stop-color="#130F19"/>
      <stop offset="100%" stop-color="#08070D"/>
    </linearGradient>
    <linearGradient id="brand" x1="18%" y1="8%" x2="82%" y2="92%">
      <stop offset="0%" stop-color="#FFC36B"/>
      <stop offset="48%" stop-color="#FF7A59"/>
      <stop offset="100%" stop-color="#FF5D7A"/>
    </linearGradient>
    <radialGradient id="glow" cx="22%" cy="18%" r="70%">
      <stop offset="0%" stop-color="#FFBE8A" stop-opacity="0.72"/>
      <stop offset="42%" stop-color="#FF7A59" stop-opacity="0.24"/>
      <stop offset="100%" stop-color="#FF7A59" stop-opacity="0"/>
    </radialGradient>
    <filter id="shadow" x="-40%" y="-40%" width="180%" height="180%">
      <feDropShadow dx="0" dy="18" stdDeviation="18" flood-color="#000000" flood-opacity="0.42"/>
    </filter>
  </defs>
  <rect width="512" height="512" rx="128" fill="url(#bg)"/>
  <circle cx="160" cy="138" r="182" fill="url(#glow)"/>
  <circle cx="398" cy="392" r="118" fill="#FFFFFF" opacity="0.04"/>
  <g filter="url(#shadow)">
    <path
      d="M348 159C332 145 309 137 282 137C225 137 184 167 184 211C184 248 212 270 269 286C312 298 329 309 329 329C329 351 308 366 274 366C243 366 212 353 186 327L150 364C180 398 224 418 274 418C339 418 384 384 384 332C384 288 356 264 299 248C255 236 239 226 239 208C239 191 257 178 285 178C310 178 334 187 353 203L381 170L348 159Z"
      fill="url(#brand)"
    />
    <path
      d="M323 125C354 125 379 150 379 181V225H334V181C334 175 329 170 323 170C317 170 312 175 312 181V247H267V181C267 150 292 125 323 125Z"
      fill="url(#brand)"
      opacity="0.92"
    />
  </g>
  <circle cx="393" cy="117" r="16" fill="#FFFFFF" fill-opacity="0.3"/>
</svg>
