<svg viewBox="0 0 512 512" xmlns="http://www.w3.org/2000/svg" width="512" height="512">
  <defs>
    <linearGradient id="bg" x1="0%" y1="0%" x2="100%" y2="100%">
      <stop offset="0%" stop-color="#1C1627"/>
      <stop offset="100%" stop-color="#08070C"/>
    </linearGradient>
    <linearGradient id="brand" x1="8%" y1="12%" x2="92%" y2="88%">
      <stop offset="0%" stop-color="#FF9A62"/>
      <stop offset="55%" stop-color="#FF6B57"/>
      <stop offset="100%" stop-color="#F6C567"/>
    </linearGradient>
    <radialGradient id="glow" cx="26%" cy="22%" r="72%">
      <stop offset="0%" stop-color="#FFB287" stop-opacity="0.72"/>
      <stop offset="45%" stop-color="#FF7A59" stop-opacity="0.26"/>
      <stop offset="100%" stop-color="#FF7A59" stop-opacity="0"/>
    </radialGradient>
    <filter id="shadow" x="-40%" y="-40%" width="180%" height="180%">
      <feDropShadow dx="0" dy="18" stdDeviation="18" flood-color="#000000" flood-opacity="0.42"/>
    </filter>
  </defs>
  <rect width="512" height="512" rx="128" fill="url(#bg)"/>
  <circle cx="166" cy="142" r="190" fill="url(#glow)"/>
  <circle cx="404" cy="396" r="126" fill="#FFFFFF" opacity="0.04"/>
  <g filter="url(#shadow)">
    <path
      d="M132 352V160C132 147 142 136 155 136C164 136 173 141 178 149L256 266L334 149C339 141 348 136 357 136C370 136 380 147 380 160V352H332V231L276 315C271 322 264 326 256 326C248 326 241 322 236 315L180 231V352H132Z"
      fill="url(#brand)"
    />
  </g>
  <path d="M394 118L414 138" stroke="#FFFFFF" stroke-opacity="0.35" stroke-width="10" stroke-linecap="round"/>
  <path d="M414 118L394 138" stroke="#FFFFFF" stroke-opacity="0.35" stroke-width="10" stroke-linecap="round"/>
</svg>
